<?xml version="1.0" standalone="no"?>
<!DOCTYPE svg PUBLIC "-//W3C//DTD SVG 20010904//EN"
 "http://www.w3.org/TR/2001/REC-SVG-20010904/DTD/svg10.dtd">
<svg version="1.0" xmlns="http://www.w3.org/2000/svg"
 width="700.000000pt" height="700.000000pt" viewBox="0 0 700.000000 700.000000"
 preserveAspectRatio="xMidYMid meet">
<metadata>
Created by potrace 1.11, written by Peter Selinger 2001-2013
</metadata>
<g transform="translate(0.000000,700.000000) scale(0.100000,-0.100000)"
fill="#000000" stroke="none">
<path d="M3485 6984 c-122 -18 -213 -41 -320 -79 -91 -33 -246 -105 -274 -128
-9 -7 -32 -21 -51 -31 -111 -61 -306 -240 -409 -376 -283 -372 -382 -805 -296
-1285 42 -231 163 -559 341 -920 101 -206 179 -346 341 -615 127 -210 209
-338 347 -540 81 -120 98 -149 78 -136 -7 4 -20 9 -29 11 -10 2 -252 83 -538
180 -760 258 -782 265 -814 265 -52 0 -82 -19 -165 -104 -44 -46 -196 -202
-336 -347 -364 -375 -365 -376 -639 -658 -137 -141 -286 -294 -331 -341 -44
-47 -139 -143 -209 -215 -70 -71 -135 -142 -145 -156 -43 -67 -18 -154 56
-200 45 -28 90 -54 828 -479 452 -260 527 -304 565 -327 11 -7 26 -15 34 -19
8 -4 76 -43 150 -87 75 -43 156 -90 181 -104 25 -14 143 -82 263 -151 188
-108 224 -125 260 -124 34 0 131 44 502 227 253 125 593 292 755 372 162 80
396 196 520 258 225 112 225 112 280 105 30 -4 109 -29 175 -57 66 -28 343
-142 615 -253 272 -111 519 -213 548 -226 29 -13 55 -24 59 -24 3 0 94 -36
202 -81 184 -76 340 -140 386 -159 11 -4 36 -15 55 -23 19 -9 82 -34 140 -57
58 -22 124 -50 147 -60 80 -37 144 -30 192 21 38 41 44 90 21 161 -11 35 -25
72 -30 83 -5 11 -102 261 -215 555 -114 294 -217 562 -230 595 -12 33 -46 121
-75 195 -29 74 -72 185 -95 245 -24 61 -95 247 -160 415 -64 168 -121 315
-127 327 -20 40 -62 69 -158 108 -52 21 -108 43 -125 50 -33 14 -230 95 -565
230 -118 48 -291 119 -385 157 -270 111 -270 111 -328 98 -27 -6 -52 -8 -55
-5 -3 3 0 5 6 5 7 0 12 4 12 9 0 6 26 52 59 103 465 739 758 1429 798 1880 10
115 4 290 -12 368 -3 14 -7 39 -9 55 -7 51 -44 188 -71 258 -164 437 -509 781
-950 947 -11 4 -32 12 -47 18 -32 13 -189 51 -238 58 -19 2 -46 7 -60 11 -50
12 -336 10 -425 -3z m437 -729 c414 -72 680 -419 588 -766 -30 -111 -129 -238
-275 -353 -91 -72 -192 -182 -219 -240 -14 -30 -29 -79 -31 -108 -7 -68 -22
-106 -46 -113 -25 -8 -422 -9 -448 0 -11 3 -26 15 -31 25 -13 24 -14 225 -1
268 26 89 92 164 266 309 182 150 225 207 225 296 0 82 -78 167 -182 198 -47
14 -141 12 -199 -5 -56 -17 -95 -39 -183 -103 -34 -25 -69 -43 -85 -43 -20 0
-56 30 -153 125 -156 153 -158 159 -70 243 220 211 556 318 844 267z m-71
-1957 c108 -51 186 -151 206 -263 25 -140 -57 -295 -190 -359 -174 -85 -373
-17 -465 158 -24 45 -27 62 -27 146 0 85 3 101 29 152 28 56 96 128 146 157
81 47 212 50 301 9z m-1395 -1454 c302 -102 570 -192 595 -201 l46 -15 -44
-127 c-25 -69 -69 -196 -99 -281 -31 -85 -84 -236 -118 -335 -216 -613 -199
-569 -213 -541 -12 23 -63 46 -103 46 -8 0 -62 13 -119 30 -115 33 -145 31
-166 -9 -12 -23 -11 -31 1 -58 17 -34 71 -58 199 -89 41 -9 106 -18 136 -18
l37 0 -12 -41 c-7 -22 -27 -78 -43 -125 -17 -47 -61 -170 -98 -275 -37 -104
-71 -199 -75 -210 -4 -11 -20 -56 -35 -100 -23 -69 -43 -120 -52 -134 -1 -2
-8 1 -15 6 -11 9 -638 372 -703 407 -11 6 -31 19 -45 27 -14 9 -180 105 -370
214 -488 280 -761 438 -778 450 -3 3 9 15 417 434 146 150 305 314 353 364 48
50 89 89 91 87 3 -3 26 -46 51 -96 46 -91 60 -103 108 -104 22 0 58 38 58 63
0 10 -25 71 -56 134 l-56 115 34 36 c162 172 513 532 519 532 3 0 253 -84 555
-186z m2231 85 c26 -11 131 -54 233 -96 102 -41 199 -81 215 -88 17 -7 77 -31
135 -54 58 -23 114 -46 125 -51 11 -5 94 -39 185 -76 242 -97 221 -83 252
-166 14 -40 89 -235 166 -433 76 -198 187 -484 245 -635 59 -151 162 -419 230
-595 69 -176 123 -321 122 -323 -1 -2 -191 74 -421 169 -231 94 -482 197 -559
229 -77 31 -241 99 -365 150 -124 50 -295 120 -380 155 -85 35 -186 77 -225
93 l-70 29 1 104 c2 168 25 750 33 827 0 6 10 12 20 12 27 0 60 31 65 62 6 35
-21 69 -57 71 l-26 2 4 95 c6 135 18 469 19 508 0 17 1 32 2 32 1 0 24 -9 51
-21z m-333 -21 c-2 -18 -5 -103 -8 -188 -3 -85 -9 -236 -12 -335 -4 -126 -11
-188 -21 -208 -11 -23 -12 -35 -3 -63 8 -24 10 -89 6 -207 -12 -329 -26 -650
-29 -653 -2 -2 -732 -362 -1073 -530 -139 -67 -329 -161 -422 -208 l-171 -86
70 203 c39 111 79 225 89 252 18 50 82 232 206 585 36 102 92 259 124 350 32
91 99 282 149 425 50 143 99 280 108 305 16 46 37 70 60 70 7 0 53 -54 103
-120 50 -66 104 -127 120 -135 39 -20 85 -19 122 3 28 16 149 173 316 408 l71
100 88 32 c48 17 93 31 99 31 7 1 10 -12 8 -31z"/>
<path d="M1633 1871 c-51 -41 -38 -76 65 -180 102 -102 156 -141 185 -134 36
9 57 34 57 67 0 27 -16 47 -116 141 -63 61 -117 112 -119 114 -12 11 -54 7
-72 -8z"/>
<path d="M5077 2299 c-44 -25 -40 -100 5 -118 69 -27 294 -95 311 -93 42 3 67
58 45 99 -12 25 -112 67 -239 103 -83 23 -97 24 -122 9z"/>
<path d="M5750 1950 c-22 -22 -26 -67 -7 -90 7 -8 39 -38 72 -65 33 -27 69
-59 80 -70 80 -80 119 -92 161 -50 46 47 16 90 -164 236 -79 64 -109 72 -142
39z"/>
<path d="M3816 1840 c-143 -95 -160 -116 -137 -166 15 -34 49 -45 87 -29 35
15 232 144 258 170 25 25 20 70 -10 94 -15 12 -35 21 -44 21 -10 0 -79 -41
-154 -90z"/>
<path d="M3245 1524 c-22 -8 -53 -21 -70 -28 -16 -7 -60 -23 -96 -35 -37 -12
-75 -31 -84 -41 -33 -37 -14 -100 35 -113 20 -5 125 29 251 82 73 30 98 54 93
89 -1 6 -2 16 -3 21 -2 20 -34 41 -59 40 -15 0 -45 -7 -67 -15z"/>
</g>
</svg>
